<?xml version="1.0" standalone="no"?>
<!DOCTYPE svg PUBLIC "-//W3C//DTD SVG 20010904//EN"
 "http://www.w3.org/TR/2001/REC-SVG-20010904/DTD/svg10.dtd">
<svg version="1.0" xmlns="http://www.w3.org/2000/svg"
 width="512.000000pt" height="512.000000pt" viewBox="0 0 512.000000 512.000000"
 preserveAspectRatio="xMidYMid meet">

<g transform="translate(0.000000,512.000000) scale(0.100000,-0.100000)"
fill="#000000" stroke="none">
<path d="M4280 4828 c-91 -10 -3671 -1204 -3748 -1250 -111 -67 -204 -199
-231 -326 -35 -167 16 -331 138 -452 62 -62 103 -85 765 -440 528 -283 709
-385 740 -416 30 -30 141 -225 421 -739 323 -594 389 -708 437 -760 188 -203
505 -207 703 -10 34 34 72 85 88 117 15 32 300 869 634 1860 l606 1803 5 97
c3 79 0 109 -17 165 -71 236 -291 378 -541 351z m-1125 -1443 c-609 -613
-1109 -1115 -1110 -1115 -1 0 -310 166 -686 369 -777 419 -744 396 -744 511 0
74 14 103 69 144 15 12 825 287 1799 613 975 325 1774 592 1776 592 2 1 -495
-501 -1104 -1114z m919 -392 c-234 -698 -502 -1494 -595 -1771 -92 -277 -178
-518 -189 -537 -26 -41 -92 -75 -149 -75 -42 0 -107 27 -129 53 -6 7 -176 322
-378 698 l-366 684 1114 1107 c612 609 1114 1107 1115 1108 1 0 -190 -570
-423 -1267z"/>
</g>
</svg>
